<?xml version="1.0" standalone="no"?>
<!DOCTYPE svg PUBLIC "-//W3C//DTD SVG 20010904//EN"
 "http://www.w3.org/TR/2001/REC-SVG-20010904/DTD/svg10.dtd">
<svg version="1.0" xmlns="http://www.w3.org/2000/svg"
 width="1024.000000pt" height="1024.000000pt" viewBox="0 0 1024.000000 1024.000000"
 preserveAspectRatio="xMidYMid meet">
<metadata>
Created by potrace 1.14, written by Peter Selinger 2001-2017
</metadata>
<g transform="translate(0.000000,1024.000000) scale(0.100000,-0.100000)"
fill="#000000" stroke="none">
<path d="M5099 9446 c-2 -2 -22 -6 -44 -9 -22 -3 -60 -12 -85 -20 -42 -14
-320 -138 -508 -228 -46 -21 -89 -39 -96 -39 -8 0 -19 -6 -25 -14 -7 -8 -22
-17 -35 -20 -13 -3 -61 -23 -107 -45 -46 -22 -259 -119 -474 -216 -391 -177
-477 -217 -570 -260 -27 -13 -75 -34 -105 -48 -69 -30 -138 -62 -215 -97 -69
-32 -168 -77 -240 -110 -27 -12 -68 -31 -89 -41 -22 -11 -46 -19 -53 -19 -7 0
-13 -4 -13 -10 0 -5 -6 -10 -14 -10 -8 0 -27 -7 -43 -15 -26 -13 -126 -59
-213 -98 -19 -8 -69 -31 -110 -50 -41 -19 -151 -69 -245 -111 -93 -42 -192
-87 -220 -100 -27 -13 -75 -35 -105 -49 -30 -14 -107 -48 -170 -77 -63 -29
-140 -63 -170 -77 -222 -100 -282 -152 -323 -278 -18 -56 -16 -194 3 -251 45
-130 88 -166 323 -273 253 -114 265 -120 325 -148 31 -15 59 -27 62 -28 3 0
25 -10 50 -22 25 -11 196 -89 380 -172 184 -84 358 -164 387 -178 29 -14 56
-25 60 -26 4 0 43 -18 86 -39 43 -21 79 -38 81 -38 2 0 42 -17 88 -39 45 -21
153 -70 238 -109 85 -38 184 -83 220 -100 36 -16 187 -85 335 -152 149 -67
299 -136 335 -152 36 -17 110 -51 165 -75 55 -25 125 -57 155 -71 30 -14 57
-26 60 -27 3 0 41 -18 84 -38 43 -20 80 -37 82 -37 1 0 50 -22 109 -50 59 -28
108 -50 110 -50 2 0 45 -20 97 -44 210 -98 346 -154 398 -165 105 -21 191 -2
370 82 52 25 118 55 145 67 28 12 77 35 110 50 33 15 206 94 385 175 179 80
354 160 390 177 36 16 90 41 120 55 30 13 79 36 108 49 30 14 72 34 95 43 23
10 74 33 112 51 39 18 108 49 155 70 47 21 126 57 175 80 50 23 104 48 120 55
44 19 127 57 335 153 102 46 200 90 218 96 18 7 38 18 44 24 7 7 17 12 23 12
6 0 39 14 73 30 34 17 64 30 66 30 2 0 42 17 88 39 45 21 106 49 133 61 28 13
151 69 275 125 124 56 252 115 285 130 33 14 80 36 105 47 330 151 318 144
374 202 64 67 90 135 92 246 3 106 -10 156 -58 230 -42 63 -97 102 -234 164
-66 29 -150 68 -189 86 -38 18 -110 50 -160 72 -49 22 -137 62 -194 89 -57 27
-105 49 -108 49 -2 0 -32 13 -66 30 -95 45 -481 221 -492 224 -5 2 -40 17 -77
34 -105 49 -280 129 -518 237 -52 24 -135 61 -183 84 -49 23 -90 41 -92 41 -1
0 -41 17 -87 39 -45 21 -135 62 -198 91 -63 29 -153 70 -198 91 -46 22 -85 39
-87 39 -2 0 -39 16 -82 36 -43 20 -150 69 -238 109 -88 40 -189 86 -225 103
-78 35 -275 125 -345 157 -57 25 -119 54 -222 101 -40 18 -96 40 -125 49 -50
14 -171 28 -179 21z"/>
<path d="M1945 5869 c-33 -15 -139 -62 -235 -105 -174 -76 -257 -113 -315
-139 -16 -7 -66 -29 -110 -48 -294 -127 -317 -139 -371 -192 -135 -132 -138
-405 -6 -533 19 -19 85 -58 146 -87 174 -82 246 -115 251 -115 2 0 46 -20 97
-44 137 -64 249 -116 253 -116 1 0 51 -22 109 -50 58 -27 108 -50 110 -50 2 0
42 -17 88 -39 45 -21 232 -106 413 -189 182 -82 362 -164 400 -182 39 -18 140
-64 225 -102 85 -39 193 -88 238 -109 46 -22 85 -39 87 -39 2 0 41 -17 87 -39
45 -21 184 -85 308 -141 124 -56 254 -116 290 -132 36 -17 79 -36 95 -43 17
-7 74 -34 128 -59 55 -25 100 -46 102 -46 3 0 122 -54 230 -105 57 -27 152
-69 210 -95 22 -10 75 -34 118 -54 144 -67 252 -82 358 -49 30 9 56 17 59 18
12 4 62 26 155 70 98 46 145 67 155 70 3 0 32 14 65 29 181 85 227 106 230
106 2 0 37 15 77 34 40 19 129 60 198 91 69 32 148 67 175 80 28 13 97 44 155
70 58 26 143 65 188 86 46 21 86 39 88 39 2 0 43 19 91 43 48 24 90 43 93 44
9 1 71 29 315 141 318 145 314 143 800 364 182 82 336 155 343 160 6 6 12 7
12 4 0 -4 15 1 33 10 47 25 47 25 273 127 115 52 249 114 297 136 49 23 90 41
92 41 13 0 159 75 193 99 156 114 165 423 16 561 -25 23 -92 63 -161 95 -140
67 -101 49 -408 186 -272 121 -315 140 -420 189 -38 18 -77 33 -85 32 -12 0
-147 -60 -415 -181 -22 -10 -206 -94 -410 -185 -203 -92 -390 -177 -415 -188
-36 -17 -357 -161 -715 -322 -71 -32 -67 -31 -400 -180 -143 -65 -285 -129
-315 -143 -53 -25 -147 -60 -182 -69 -158 -38 -177 -41 -303 -39 -164 3 -294
33 -442 101 -32 14 -76 34 -98 44 -81 35 -783 354 -874 396 -51 24 -95 44 -98
44 -2 0 -32 13 -66 29 -34 17 -237 109 -452 206 -214 97 -415 188 -445 202
-30 14 -68 31 -85 38 -45 20 -265 120 -397 181 -169 78 -154 75 -223 43z"/>
<path d="M1925 3705 c-27 -13 -232 -105 -454 -205 -435 -195 -455 -204 -489
-224 -36 -21 -98 -80 -112 -106 -7 -14 -16 -27 -20 -30 -19 -14 -39 -128 -36
-205 4 -97 31 -165 95 -237 49 -55 76 -69 626 -318 417 -190 467 -212 550
-250 28 -13 75 -34 105 -47 30 -14 82 -37 115 -53 33 -15 80 -37 105 -48 175
-79 398 -180 468 -213 46 -21 86 -39 87 -39 2 0 41 -18 87 -39 46 -21 227
-104 403 -184 176 -80 364 -166 418 -191 55 -25 101 -46 103 -46 2 0 41 -17
86 -39 46 -21 175 -80 288 -131 113 -51 288 -131 390 -177 282 -130 291 -133
395 -133 72 -1 99 4 167 31 54 21 80 33 221 98 49 23 90 41 92 41 2 0 45 20
97 44 98 46 123 57 283 129 55 25 134 61 175 80 92 42 128 59 455 207 143 65
289 131 325 148 36 16 88 39 115 52 102 46 161 72 210 95 28 13 201 92 385
175 361 164 399 181 505 230 39 18 115 52 170 77 55 25 125 56 155 70 30 14
102 47 160 73 58 26 131 59 163 74 31 14 81 37 110 50 28 13 86 39 127 59 41
19 104 47 140 63 199 87 278 203 268 394 -6 110 -38 184 -106 247 -54 50 -82
65 -477 241 -99 44 -205 91 -235 105 -30 14 -122 55 -205 92 -169 76 -148 75
-290 10 -38 -18 -135 -62 -215 -98 -80 -35 -174 -78 -210 -94 -36 -17 -105
-48 -155 -71 -49 -22 -119 -54 -155 -70 -36 -17 -132 -60 -215 -97 -82 -37
-175 -78 -205 -92 -30 -14 -125 -56 -210 -95 -85 -38 -175 -79 -200 -90 -126
-58 -155 -72 -160 -73 -3 -1 -21 -8 -40 -17 -19 -9 -82 -37 -140 -63 -58 -26
-127 -57 -155 -70 -27 -13 -75 -34 -105 -48 -30 -13 -75 -33 -100 -45 -347
-156 -437 -193 -511 -207 -13 -3 -35 -7 -49 -10 -63 -13 -80 -15 -165 -16 -81
-2 -191 7 -206 17 -3 2 -21 6 -40 9 -46 8 -169 50 -243 84 -34 16 -82 38 -108
50 -27 11 -67 30 -90 40 -36 16 -275 124 -668 301 -47 21 -161 73 -255 115
-93 42 -184 83 -201 90 -139 64 -212 96 -224 100 -3 1 -41 18 -85 39 -44 21
-134 62 -200 91 -66 30 -280 126 -475 214 -195 89 -362 161 -370 160 -8 0 -37
-11 -65 -24z"/>
</g>
</svg>
